/* XPM */
static char * shade_pressed_xpm[] = {
"15 15 5 1",
" 	c None",
".	c #EEEEEE",
"+	c #333366",
"@	c #CCCCFF",
"#	c #A4A4A4",
"               ",
" ............. ",
" .+++++++++++. ",
" .+@@@@@@@@@@. ",
" .+@#######+@. ",
" .+@#######+@. ",
" .+@++++++++@. ",
" .+@@@@@@@@@@. ",
" .+@#######+@. ",
" .+@#######+@. ",
" .+@#######+@. ",
" .+@++++++++@. ",
" .+@@@@@@@@@@. ",
" ............. ",
"               "};
