/* XPM */
static char * title_1_active_xpm[] = {
"7 23 5 1",
" 	c #000000",
".	c #CFC8FF",
"+	c #EFE8EF",
"@	c #707070",
"#	c #A0A0D0",
"       ",
".......",
"+++++++",
"+++++++",
"+++++++",
"+++++++",
"@@@@@@@",
"+++++++",
"@@@@@@@",
"+++++++",
"@@@@@@@",
"+++++++",
"@@@@@@@",
"+++++++",
"@@@@@@@",
"+++++++",
"@@@@@@@",
"+++++++",
"+++++++",
"+++++++",
"+++++++",
"#######",
"       "};
