/* XPM */
static char * top_left_active_xpm[] = {
"41 23 5 1",
" 	c #000000",
".	c #CFC8FF",
"+	c #EFE8EF",
"@	c #707070",
"#	c #A0A0D0",
"                                         ",
" ........................................",
" .+++++++++++++++++++++++++++++++++++++++",
" .+++++++++++++++++++++++++++++++++++++++",
" .+++++++++++++++++++++++++++++++++++++++",
" .+++++++++++++++++++++++++++++++++++++++",
" .@@@@@@@@@@@@@@@@@@@@@@@@@@@@@@@@@@@@@@@",
" .+++++++++++++++++++++++++++++++++++++++",
" .@@@@@@@@@@@@@@@@@@@@@@@@@@@@@@@@@@@@@@@",
" .+++++++++++++++++++++++++++++++++++++++",
" .@@@@@@@@@@@@@@@@@@@@@@@@@@@@@@@@@@@@@@@",
" .+++++++++++++++++++++++++++++++++++++++",
" .@@@@@@@@@@@@@@@@@@@@@@@@@@@@@@@@@@@@@@@",
" .+++++++++++++++++++++++++++++++++++++++",
" .@@@@@@@@@@@@@@@@@@@@@@@@@@@@@@@@@@@@@@@",
" .+++++++++++++++++++++++++++++++++++++++",
" .@@@@@@@@@@@@@@@@@@@@@@@@@@@@@@@@@@@@@@@",
" .+++++++++++++++++++++++++++++++++++++++",
" .+++++++++++++++++++++++++++++++++++++++",
" .+++++++++++++++++++++++++++++++++++++++",
" .+++++++++++++++++++++++++++++++++++++++",
" ########################################",
"                                         "};
