/* XPM */
static char * top_right_active_xpm[] = {
"41 23 5 1",
" 	c #000000",
".	c #CFC8FF",
"+	c #A0A0D0",
"@	c #EFE8EF",
"#	c #707070",
"                                         ",
".......................................+ ",
"@@@@@@@@@@@@@@@@@@@@@@@@@@@@@@@@@@@@@@@+ ",
"@@@@@@@@@@@@@@@@@@@@@@@@@@@@@@@@@@@@@@@+ ",
"@@@@@@@@@@@@@@@@@@@@@@@@@@@@@@@@@@@@@@@+ ",
"@@@@@@@@@@@@@@@@@@@@@@@@@@@@@@@@@@@@@@@+ ",
"#######################################+ ",
"@@@@@@@@@@@@@@@@@@@@@@@@@@@@@@@@@@@@@@@+ ",
"#######################################+ ",
"@@@@@@@@@@@@@@@@@@@@@@@@@@@@@@@@@@@@@@@+ ",
"#######################################+ ",
"@@@@@@@@@@@@@@@@@@@@@@@@@@@@@@@@@@@@@@@+ ",
"#######################################+ ",
"@@@@@@@@@@@@@@@@@@@@@@@@@@@@@@@@@@@@@@@+ ",
"#######################################+ ",
"@@@@@@@@@@@@@@@@@@@@@@@@@@@@@@@@@@@@@@@+ ",
"#######################################+ ",
"@@@@@@@@@@@@@@@@@@@@@@@@@@@@@@@@@@@@@@@+ ",
"@@@@@@@@@@@@@@@@@@@@@@@@@@@@@@@@@@@@@@@+ ",
"@@@@@@@@@@@@@@@@@@@@@@@@@@@@@@@@@@@@@@@+ ",
"@@@@@@@@@@@@@@@@@@@@@@@@@@@@@@@@@@@@@@@+ ",
"++++++++++++++++++++++++++++++++++++++++ ",
"                                         "};
