/* XPM */
static char * title_1_active_xpm[] = {
"7 19 2 1",
" 	c #000000",
".	c #FFFFFF",
"       ",
".......",
".......",
".......",
"       ",
".......",
"       ",
".......",
"       ",
".......",
"       ",
".......",
"       ",
".......",
"       ",
".......",
".......",
".......",
"       "};
