/* XPM */
static char * top_right_active_xpm[] = {
"41 19 2 1",
" 	c #000000",
".	c #FFFFFF",
"                                         ",
"........................................ ",
"........................................ ",
"........................................ ",
"                                       . ",
"........................................ ",
"                                       . ",
"........................................ ",
"                                       . ",
"........................................ ",
"                                       . ",
"........................................ ",
"                                       . ",
"........................................ ",
"                                       . ",
"........................................ ",
"........................................ ",
"........................................ ",
"                                         "};
