/* XPM */
static char * maximize_active_xpm[] = {
"13 13 4 1",
" 	c #EEEEEE",
".	c #333366",
"+	c #CCCCFF",
"@	c #A4A4A4",
"             ",
" ........... ",
" .++++++++++ ",
" .+@@@@.@@.+ ",
" .+@@@@.@@.+ ",
" .+@@@@.@@.+ ",
" .+@@@@.@@.+ ",
" .+.....@@.+ ",
" .+@@@@@@@.+ ",
" .+@@@@@@@.+ ",
" .+........+ ",
" .++++++++++ ",
"             "};
