/* XPM */
static char * title_3_active_xpm[] = {
"6 19 4 1",
" 	c #000000",
".	c #CCCCFF",
"+	c #EEEEEE",
"@	c #A3A3D7",
"      ",
"......",
"++++++",
"++++++",
"++++++",
"++++++",
"++++++",
"++++++",
"++++++",
"++++++",
"++++++",
"++++++",
"++++++",
"++++++",
"++++++",
"++++++",
"++++++",
"@@@@@@",
"      "};
