/* XPM */
static char * title_1_active_xpm[] = {
"6 19 5 1",
" 	c #000000",
".	c #CCCCFF",
"+	c #EEEEEE",
"@	c #777777",
"#	c #A3A3D7",
"      ",
"......",
"++++++",
"++++++",
"@@@@@@",
"++++++",
"@@@@@@",
"++++++",
"@@@@@@",
"++++++",
"@@@@@@",
"++++++",
"@@@@@@",
"++++++",
"@@@@@@",
"++++++",
"++++++",
"######",
"      "};
